  0
SECTION
  2
HEADER
  9
$INSUNITS
 70
4
  9
$MEASUREMENT
 70
1
  0
ENDSEC
  0
SECTION
  2
TABLES
  0
TABLE
  2
LAYER
 70
3
  0
LAYER
  2
OUTLINE
 70
0
 62
7
  6
CONTINUOUS
  0
LAYER
  2
OUTLINE_R12
 70
0
 62
3
  6
CONTINUOUS
  0
LAYER
  2
TEST
 70
0
 62
1
  6
CONTINUOUS
  0
ENDTAB
  0
ENDSEC
  0
SECTION
  2
ENTITIES
  0
LINE
  8
TEST
 10
-5.000000
 20
0.000000
 30
0
 11
5.000000
 21
0.000000
 31
0
  0
LINE
  8
TEST
 10
0.000000
 20
-5.000000
 30
0
 11
0.000000
 21
5.000000
 31
0
  0
LWPOLYLINE
100
AcDbEntity
  8
TEST
100
AcDbPolyline
 90
4
 70
1
 10
0.000000
 20
0.000000
 10
10.000000
 20
0.000000
 10
10.000000
 20
5.000000
 10
0.000000
 20
5.000000
  0
LWPOLYLINE
100
AcDbEntity
  8
OUTLINE
100
AcDbPolyline
 90
165
 70
1
 10
13.281497
 20
4.6002934e-16
 10
21.185651
 20
1.0521703
 10
23.832417
 20
1.2169101
 10
23.819372
 20
1.4265045
 10
21.172605
 20
1.2617647
 10
13.198498
 20
1.3280801
 10
20.91274
 20
3.3469311
 10
23.519143
 20
3.8359886
 10
23.480415
 20
4.0423866
 10
20.874013
 20
3.5533291
 10
12.950129
 20
2.645589
 10
20.366205
 20
5.5779661
 10
22.895617
 20
6.3745788
 10
22.832534
 20
6.57488
 10
20.303123
 20
5.7782673
 10
12.539648
 20
3.9444351
 10
19.570668
 20
7.7123566
 10
21.993368
 20
8.7907999
 10
21.907967
 20
8.9826506
 10
19.485268
 20
7.9042074
 10
11.980542
 20
5.2004538
 10
17.23079
 20
11.37049
 10
19.081671
 20
13.269636
 10
18.93128
 20
13.416205
 10
17.080399
 20
11.517059
 10
11.225363
 20
6.2922218
 10
16.132118
 20
12.728015
 10
17.879081
 20
14.723167
 10
17.721087
 20
14.861507
 10
15.974124
 20
12.866355
 10
10.3991
 20
7.3312328
 10
14.51309
 20
14.279944
 10
16.017941
 20
16.463505
 10
15.845028
 20
16.582672
 10
14.340177
 20
14.399111
 10
9.4250606
 20
8.2464595
 10
12.106724
 20
15.82974
 10
13.162707
 20
18.262313
 10
12.970074
 20
18.345935
 10
11.914091
 20
15.913362
 10
8.2598547
 20
8.9012028
 10
8.3120788
 20
16.895062
 10
8.5323519
 20
19.537787
 10
8.3230776
 20
19.55523
 10
8.1028045
 20
16.912505
 10
6.8333903
 20
9.0500175
 10
3.9646375
 20
16.439345
 10
3.1980334
 20
18.978012
 10
2.9969993
 20
18.917306
 10
3.7636034
 20
16.378638
 10
5.4944751
 20
8.5359624
 10
0.9050086
 20
14.944109
 10
-0.47257672
 20
17.210113
 10
-0.65201892
 20
17.101023
 10
0.7255664
 20
14.83502
 10
4.4016118
 20
7.6471461
 10
-1.4726206
 20
12.843212
 10
-3.322037
 20
14.743783
 10
-3.4725411
 20
14.59733
 10
-1.6231246
 20
12.696758
 10
3.5991418
 20
6.4893953
 10
-3.9125787
 20
10.035515
 10
-6.2091816
 20
11.361459
 10
-6.3141816
 20
11.179594
 10
-4.0175787
 20
9.8536496
 10
2.2503181
 20
5.4441034
 10
-5.6003171
 20
7.9256196
 10
-8.0503427
 20
8.9404534
 10
-8.1307062
 20
8.7464387
 10
-5.6806806
 20
7.7316049
 10
1.1638282
 20
4.1163476
 10
-6.8765121
 20
5.5041169
 10
-9.4380398
 20
6.1904762
 10
-9.4923918
 20
5.9876317
 10
-6.9308641
 20
5.3012725
 10
0.3978877
 20
2.564481
 10
-7.6754485
 20
2.8620368
 10
-10.30465
 20
3.2081777
 10
-10.33206
 20
2.9999743
 10
-7.702859
 20
2.6538334
 10
0.0020483118
 20
0.87097141
 10
-7.9556658
 20
0.105
 10
-10.607554
 20
0.105
 10
-10.607554
 20
-0.105
 10
-7.9556658
 20
-0.105
 10
0.0020483118
 20
-0.87097141
 10
-7.702859
 20
-2.6538334
 10
-10.33206
 20
-2.9999743
 10
-10.30465
 20
-3.2081777
 10
-7.6754485
 20
-2.8620368
 10
0.3978877
 20
-2.564481
 10
-6.9308641
 20
-5.3012725
 10
-9.4923918
 20
-5.9876317
 10
-9.4380398
 20
-6.1904762
 10
-6.8765121
 20
-5.5041169
 10
1.1638282
 20
-4.1163476
 10
-5.6806806
 20
-7.7316049
 10
-8.1307062
 20
-8.7464387
 10
-8.0503427
 20
-8.9404534
 10
-5.6003171
 20
-7.9256196
 10
2.2503181
 20
-5.4441034
 10
-4.0175787
 20
-9.8536496
 10
-6.3141816
 20
-11.179594
 10
-6.2091816
 20
-11.361459
 10
-3.9125787
 20
-10.035515
 10
3.5991418
 20
-6.4893953
 10
-1.6231246
 20
-12.696758
 10
-3.4725411
 20
-14.59733
 10
-3.322037
 20
-14.743783
 10
-1.4726206
 20
-12.843212
 10
4.4016118
 20
-7.6471461
 10
0.7255664
 20
-14.83502
 10
-0.65201892
 20
-17.101023
 10
-0.47257672
 20
-17.210113
 10
0.9050086
 20
-14.944109
 10
5.4944751
 20
-8.5359624
 10
3.7636034
 20
-16.378638
 10
2.9969993
 20
-18.917306
 10
3.1980334
 20
-18.978012
 10
3.9646375
 20
-16.439345
 10
6.8333903
 20
-9.0500175
 10
8.1028045
 20
-16.912505
 10
8.3230776
 20
-19.55523
 10
8.5323519
 20
-19.537787
 10
8.3120788
 20
-16.895062
 10
8.2598547
 20
-8.9012028
 10
11.914091
 20
-15.913362
 10
12.970074
 20
-18.345935
 10
13.162707
 20
-18.262313
 10
12.106724
 20
-15.82974
 10
9.4250606
 20
-8.2464595
 10
14.340177
 20
-14.399111
 10
15.845028
 20
-16.582672
 10
16.017941
 20
-16.463505
 10
14.51309
 20
-14.279944
 10
10.3991
 20
-7.3312328
 10
15.974124
 20
-12.866355
 10
17.721087
 20
-14.861507
 10
17.879081
 20
-14.723167
 10
16.132118
 20
-12.728015
 10
11.225363
 20
-6.2922218
 10
17.080399
 20
-11.517059
 10
18.93128
 20
-13.416205
 10
19.081671
 20
-13.269636
 10
17.23079
 20
-11.37049
 10
11.980542
 20
-5.2004538
 10
19.485268
 20
-7.9042074
 10
21.907967
 20
-8.9826506
 10
21.993368
 20
-8.7907999
 10
19.570668
 20
-7.7123566
 10
12.539648
 20
-3.9444351
 10
20.303123
 20
-5.7782673
 10
22.832534
 20
-6.57488
 10
22.895617
 20
-6.3745788
 10
20.366205
 20
-5.5779661
 10
12.950129
 20
-2.645589
 10
20.874013
 20
-3.5533291
 10
23.480415
 20
-4.0423866
 10
23.519143
 20
-3.8359886
 10
20.91274
 20
-3.3469311
 10
13.198498
 20
-1.3280801
 10
21.172605
 20
-1.2617647
 10
23.819372
 20
-1.4265045
 10
23.832417
 20
-1.2169101
 10
21.185651
 20
-1.0521703
  0
POLYLINE
  8
OUTLINE_R12
 66
1
 70
1
  0
VERTEX
  8
OUTLINE_R12
 10
13.281497
 20
4.6002934e-16
 30
0.0
  0
VERTEX
  8
OUTLINE_R12
 10
21.185651
 20
1.0521703
 30
0.0
  0
VERTEX
  8
OUTLINE_R12
 10
23.832417
 20
1.2169101
 30
0.0
  0
VERTEX
  8
OUTLINE_R12
 10
23.819372
 20
1.4265045
 30
0.0
  0
VERTEX
  8
OUTLINE_R12
 10
21.172605
 20
1.2617647
 30
0.0
  0
VERTEX
  8
OUTLINE_R12
 10
13.198498
 20
1.3280801
 30
0.0
  0
VERTEX
  8
OUTLINE_R12
 10
20.91274
 20
3.3469311
 30
0.0
  0
VERTEX
  8
OUTLINE_R12
 10
23.519143
 20
3.8359886
 30
0.0
  0
VERTEX
  8
OUTLINE_R12
 10
23.480415
 20
4.0423866
 30
0.0
  0
VERTEX
  8
OUTLINE_R12
 10
20.874013
 20
3.5533291
 30
0.0
  0
VERTEX
  8
OUTLINE_R12
 10
12.950129
 20
2.645589
 30
0.0
  0
VERTEX
  8
OUTLINE_R12
 10
20.366205
 20
5.5779661
 30
0.0
  0
VERTEX
  8
OUTLINE_R12
 10
22.895617
 20
6.3745788
 30
0.0
  0
VERTEX
  8
OUTLINE_R12
 10
22.832534
 20
6.57488
 30
0.0
  0
VERTEX
  8
OUTLINE_R12
 10
20.303123
 20
5.7782673
 30
0.0
  0
VERTEX
  8
OUTLINE_R12
 10
12.539648
 20
3.9444351
 30
0.0
  0
VERTEX
  8
OUTLINE_R12
 10
19.570668
 20
7.7123566
 30
0.0
  0
VERTEX
  8
OUTLINE_R12
 10
21.993368
 20
8.7907999
 30
0.0
  0
VERTEX
  8
OUTLINE_R12
 10
21.907967
 20
8.9826506
 30
0.0
  0
VERTEX
  8
OUTLINE_R12
 10
19.485268
 20
7.9042074
 30
0.0
  0
VERTEX
  8
OUTLINE_R12
 10
11.980542
 20
5.2004538
 30
0.0
  0
VERTEX
  8
OUTLINE_R12
 10
17.23079
 20
11.37049
 30
0.0
  0
VERTEX
  8
OUTLINE_R12
 10
19.081671
 20
13.269636
 30
0.0
  0
VERTEX
  8
OUTLINE_R12
 10
18.93128
 20
13.416205
 30
0.0
  0
VERTEX
  8
OUTLINE_R12
 10
17.080399
 20
11.517059
 30
0.0
  0
VERTEX
  8
OUTLINE_R12
 10
11.225363
 20
6.2922218
 30
0.0
  0
VERTEX
  8
OUTLINE_R12
 10
16.132118
 20
12.728015
 30
0.0
  0
VERTEX
  8
OUTLINE_R12
 10
17.879081
 20
14.723167
 30
0.0
  0
VERTEX
  8
OUTLINE_R12
 10
17.721087
 20
14.861507
 30
0.0
  0
VERTEX
  8
OUTLINE_R12
 10
15.974124
 20
12.866355
 30
0.0
  0
VERTEX
  8
OUTLINE_R12
 10
10.3991
 20
7.3312328
 30
0.0
  0
VERTEX
  8
OUTLINE_R12
 10
14.51309
 20
14.279944
 30
0.0
  0
VERTEX
  8
OUTLINE_R12
 10
16.017941
 20
16.463505
 30
0.0
  0
VERTEX
  8
OUTLINE_R12
 10
15.845028
 20
16.582672
 30
0.0
  0
VERTEX
  8
OUTLINE_R12
 10
14.340177
 20
14.399111
 30
0.0
  0
VERTEX
  8
OUTLINE_R12
 10
9.4250606
 20
8.2464595
 30
0.0
  0
VERTEX
  8
OUTLINE_R12
 10
12.106724
 20
15.82974
 30
0.0
  0
VERTEX
  8
OUTLINE_R12
 10
13.162707
 20
18.262313
 30
0.0
  0
VERTEX
  8
OUTLINE_R12
 10
12.970074
 20
18.345935
 30
0.0
  0
VERTEX
  8
OUTLINE_R12
 10
11.914091
 20
15.913362
 30
0.0
  0
VERTEX
  8
OUTLINE_R12
 10
8.2598547
 20
8.9012028
 30
0.0
  0
VERTEX
  8
OUTLINE_R12
 10
8.3120788
 20
16.895062
 30
0.0
  0
VERTEX
  8
OUTLINE_R12
 10
8.5323519
 20
19.537787
 30
0.0
  0
VERTEX
  8
OUTLINE_R12
 10
8.3230776
 20
19.55523
 30
0.0
  0
VERTEX
  8
OUTLINE_R12
 10
8.1028045
 20
16.912505
 30
0.0
  0
VERTEX
  8
OUTLINE_R12
 10
6.8333903
 20
9.0500175
 30
0.0
  0
VERTEX
  8
OUTLINE_R12
 10
3.9646375
 20
16.439345
 30
0.0
  0
VERTEX
  8
OUTLINE_R12
 10
3.1980334
 20
18.978012
 30
0.0
  0
VERTEX
  8
OUTLINE_R12
 10
2.9969993
 20
18.917306
 30
0.0
  0
VERTEX
  8
OUTLINE_R12
 10
3.7636034
 20
16.378638
 30
0.0
  0
VERTEX
  8
OUTLINE_R12
 10
5.4944751
 20
8.5359624
 30
0.0
  0
VERTEX
  8
OUTLINE_R12
 10
0.9050086
 20
14.944109
 30
0.0
  0
VERTEX
  8
OUTLINE_R12
 10
-0.47257672
 20
17.210113
 30
0.0
  0
VERTEX
  8
OUTLINE_R12
 10
-0.65201892
 20
17.101023
 30
0.0
  0
VERTEX
  8
OUTLINE_R12
 10
0.7255664
 20
14.83502
 30
0.0
  0
VERTEX
  8
OUTLINE_R12
 10
4.4016118
 20
7.6471461
 30
0.0
  0
VERTEX
  8
OUTLINE_R12
 10
-1.4726206
 20
12.843212
 30
0.0
  0
VERTEX
  8
OUTLINE_R12
 10
-3.322037
 20
14.743783
 30
0.0
  0
VERTEX
  8
OUTLINE_R12
 10
-3.4725411
 20
14.59733
 30
0.0
  0
VERTEX
  8
OUTLINE_R12
 10
-1.6231246
 20
12.696758
 30
0.0
  0
VERTEX
  8
OUTLINE_R12
 10
3.5991418
 20
6.4893953
 30
0.0
  0
VERTEX
  8
OUTLINE_R12
 10
-3.9125787
 20
10.035515
 30
0.0
  0
VERTEX
  8
OUTLINE_R12
 10
-6.2091816
 20
11.361459
 30
0.0
  0
VERTEX
  8
OUTLINE_R12
 10
-6.3141816
 20
11.179594
 30
0.0
  0
VERTEX
  8
OUTLINE_R12
 10
-4.0175787
 20
9.8536496
 30
0.0
  0
VERTEX
  8
OUTLINE_R12
 10
2.2503181
 20
5.4441034
 30
0.0
  0
VERTEX
  8
OUTLINE_R12
 10
-5.6003171
 20
7.9256196
 30
0.0
  0
VERTEX
  8
OUTLINE_R12
 10
-8.0503427
 20
8.9404534
 30
0.0
  0
VERTEX
  8
OUTLINE_R12
 10
-8.1307062
 20
8.7464387
 30
0.0
  0
VERTEX
  8
OUTLINE_R12
 10
-5.6806806
 20
7.7316049
 30
0.0
  0
VERTEX
  8
OUTLINE_R12
 10
1.1638282
 20
4.1163476
 30
0.0
  0
VERTEX
  8
OUTLINE_R12
 10
-6.8765121
 20
5.5041169
 30
0.0
  0
VERTEX
  8
OUTLINE_R12
 10
-9.4380398
 20
6.1904762
 30
0.0
  0
VERTEX
  8
OUTLINE_R12
 10
-9.4923918
 20
5.9876317
 30
0.0
  0
VERTEX
  8
OUTLINE_R12
 10
-6.9308641
 20
5.3012725
 30
0.0
  0
VERTEX
  8
OUTLINE_R12
 10
0.3978877
 20
2.564481
 30
0.0
  0
VERTEX
  8
OUTLINE_R12
 10
-7.6754485
 20
2.8620368
 30
0.0
  0
VERTEX
  8
OUTLINE_R12
 10
-10.30465
 20
3.2081777
 30
0.0
  0
VERTEX
  8
OUTLINE_R12
 10
-10.33206
 20
2.9999743
 30
0.0
  0
VERTEX
  8
OUTLINE_R12
 10
-7.702859
 20
2.6538334
 30
0.0
  0
VERTEX
  8
OUTLINE_R12
 10
0.0020483118
 20
0.87097141
 30
0.0
  0
VERTEX
  8
OUTLINE_R12
 10
-7.9556658
 20
0.105
 30
0.0
  0
VERTEX
  8
OUTLINE_R12
 10
-10.607554
 20
0.105
 30
0.0
  0
VERTEX
  8
OUTLINE_R12
 10
-10.607554
 20
-0.105
 30
0.0
  0
VERTEX
  8
OUTLINE_R12
 10
-7.9556658
 20
-0.105
 30
0.0
  0
VERTEX
  8
OUTLINE_R12
 10
0.0020483118
 20
-0.87097141
 30
0.0
  0
VERTEX
  8
OUTLINE_R12
 10
-7.702859
 20
-2.6538334
 30
0.0
  0
VERTEX
  8
OUTLINE_R12
 10
-10.33206
 20
-2.9999743
 30
0.0
  0
VERTEX
  8
OUTLINE_R12
 10
-10.30465
 20
-3.2081777
 30
0.0
  0
VERTEX
  8
OUTLINE_R12
 10
-7.6754485
 20
-2.8620368
 30
0.0
  0
VERTEX
  8
OUTLINE_R12
 10
0.3978877
 20
-2.564481
 30
0.0
  0
VERTEX
  8
OUTLINE_R12
 10
-6.9308641
 20
-5.3012725
 30
0.0
  0
VERTEX
  8
OUTLINE_R12
 10
-9.4923918
 20
-5.9876317
 30
0.0
  0
VERTEX
  8
OUTLINE_R12
 10
-9.4380398
 20
-6.1904762
 30
0.0
  0
VERTEX
  8
OUTLINE_R12
 10
-6.8765121
 20
-5.5041169
 30
0.0
  0
VERTEX
  8
OUTLINE_R12
 10
1.1638282
 20
-4.1163476
 30
0.0
  0
VERTEX
  8
OUTLINE_R12
 10
-5.6806806
 20
-7.7316049
 30
0.0
  0
VERTEX
  8
OUTLINE_R12
 10
-8.1307062
 20
-8.7464387
 30
0.0
  0
VERTEX
  8
OUTLINE_R12
 10
-8.0503427
 20
-8.9404534
 30
0.0
  0
VERTEX
  8
OUTLINE_R12
 10
-5.6003171
 20
-7.9256196
 30
0.0
  0
VERTEX
  8
OUTLINE_R12
 10
2.2503181
 20
-5.4441034
 30
0.0
  0
VERTEX
  8
OUTLINE_R12
 10
-4.0175787
 20
-9.8536496
 30
0.0
  0
VERTEX
  8
OUTLINE_R12
 10
-6.3141816
 20
-11.179594
 30
0.0
  0
VERTEX
  8
OUTLINE_R12
 10
-6.2091816
 20
-11.361459
 30
0.0
  0
VERTEX
  8
OUTLINE_R12
 10
-3.9125787
 20
-10.035515
 30
0.0
  0
VERTEX
  8
OUTLINE_R12
 10
3.5991418
 20
-6.4893953
 30
0.0
  0
VERTEX
  8
OUTLINE_R12
 10
-1.6231246
 20
-12.696758
 30
0.0
  0
VERTEX
  8
OUTLINE_R12
 10
-3.4725411
 20
-14.59733
 30
0.0
  0
VERTEX
  8
OUTLINE_R12
 10
-3.322037
 20
-14.743783
 30
0.0
  0
VERTEX
  8
OUTLINE_R12
 10
-1.4726206
 20
-12.843212
 30
0.0
  0
VERTEX
  8
OUTLINE_R12
 10
4.4016118
 20
-7.6471461
 30
0.0
  0
VERTEX
  8
OUTLINE_R12
 10
0.7255664
 20
-14.83502
 30
0.0
  0
VERTEX
  8
OUTLINE_R12
 10
-0.65201892
 20
-17.101023
 30
0.0
  0
VERTEX
  8
OUTLINE_R12
 10
-0.47257672
 20
-17.210113
 30
0.0
  0
VERTEX
  8
OUTLINE_R12
 10
0.9050086
 20
-14.944109
 30
0.0
  0
VERTEX
  8
OUTLINE_R12
 10
5.4944751
 20
-8.5359624
 30
0.0
  0
VERTEX
  8
OUTLINE_R12
 10
3.7636034
 20
-16.378638
 30
0.0
  0
VERTEX
  8
OUTLINE_R12
 10
2.9969993
 20
-18.917306
 30
0.0
  0
VERTEX
  8
OUTLINE_R12
 10
3.1980334
 20
-18.978012
 30
0.0
  0
VERTEX
  8
OUTLINE_R12
 10
3.9646375
 20
-16.439345
 30
0.0
  0
VERTEX
  8
OUTLINE_R12
 10
6.8333903
 20
-9.0500175
 30
0.0
  0
VERTEX
  8
OUTLINE_R12
 10
8.1028045
 20
-16.912505
 30
0.0
  0
VERTEX
  8
OUTLINE_R12
 10
8.3230776
 20
-19.55523
 30
0.0
  0
VERTEX
  8
OUTLINE_R12
 10
8.5323519
 20
-19.537787
 30
0.0
  0
VERTEX
  8
OUTLINE_R12
 10
8.3120788
 20
-16.895062
 30
0.0
  0
VERTEX
  8
OUTLINE_R12
 10
8.2598547
 20
-8.9012028
 30
0.0
  0
VERTEX
  8
OUTLINE_R12
 10
11.914091
 20
-15.913362
 30
0.0
  0
VERTEX
  8
OUTLINE_R12
 10
12.970074
 20
-18.345935
 30
0.0
  0
VERTEX
  8
OUTLINE_R12
 10
13.162707
 20
-18.262313
 30
0.0
  0
VERTEX
  8
OUTLINE_R12
 10
12.106724
 20
-15.82974
 30
0.0
  0
VERTEX
  8
OUTLINE_R12
 10
9.4250606
 20
-8.2464595
 30
0.0
  0
VERTEX
  8
OUTLINE_R12
 10
14.340177
 20
-14.399111
 30
0.0
  0
VERTEX
  8
OUTLINE_R12
 10
15.845028
 20
-16.582672
 30
0.0
  0
VERTEX
  8
OUTLINE_R12
 10
16.017941
 20
-16.463505
 30
0.0
  0
VERTEX
  8
OUTLINE_R12
 10
14.51309
 20
-14.279944
 30
0.0
  0
VERTEX
  8
OUTLINE_R12
 10
10.3991
 20
-7.3312328
 30
0.0
  0
VERTEX
  8
OUTLINE_R12
 10
15.974124
 20
-12.866355
 30
0.0
  0
VERTEX
  8
OUTLINE_R12
 10
17.721087
 20
-14.861507
 30
0.0
  0
VERTEX
  8
OUTLINE_R12
 10
17.879081
 20
-14.723167
 30
0.0
  0
VERTEX
  8
OUTLINE_R12
 10
16.132118
 20
-12.728015
 30
0.0
  0
VERTEX
  8
OUTLINE_R12
 10
11.225363
 20
-6.2922218
 30
0.0
  0
VERTEX
  8
OUTLINE_R12
 10
17.080399
 20
-11.517059
 30
0.0
  0
VERTEX
  8
OUTLINE_R12
 10
18.93128
 20
-13.416205
 30
0.0
  0
VERTEX
  8
OUTLINE_R12
 10
19.081671
 20
-13.269636
 30
0.0
  0
VERTEX
  8
OUTLINE_R12
 10
17.23079
 20
-11.37049
 30
0.0
  0
VERTEX
  8
OUTLINE_R12
 10
11.980542
 20
-5.2004538
 30
0.0
  0
VERTEX
  8
OUTLINE_R12
 10
19.485268
 20
-7.9042074
 30
0.0
  0
VERTEX
  8
OUTLINE_R12
 10
21.907967
 20
-8.9826506
 30
0.0
  0
VERTEX
  8
OUTLINE_R12
 10
21.993368
 20
-8.7907999
 30
0.0
  0
VERTEX
  8
OUTLINE_R12
 10
19.570668
 20
-7.7123566
 30
0.0
  0
VERTEX
  8
OUTLINE_R12
 10
12.539648
 20
-3.9444351
 30
0.0
  0
VERTEX
  8
OUTLINE_R12
 10
20.303123
 20
-5.7782673
 30
0.0
  0
VERTEX
  8
OUTLINE_R12
 10
22.832534
 20
-6.57488
 30
0.0
  0
VERTEX
  8
OUTLINE_R12
 10
22.895617
 20
-6.3745788
 30
0.0
  0
VERTEX
  8
OUTLINE_R12
 10
20.366205
 20
-5.5779661
 30
0.0
  0
VERTEX
  8
OUTLINE_R12
 10
12.950129
 20
-2.645589
 30
0.0
  0
VERTEX
  8
OUTLINE_R12
 10
20.874013
 20
-3.5533291
 30
0.0
  0
VERTEX
  8
OUTLINE_R12
 10
23.480415
 20
-4.0423866
 30
0.0
  0
VERTEX
  8
OUTLINE_R12
 10
23.519143
 20
-3.8359886
 30
0.0
  0
VERTEX
  8
OUTLINE_R12
 10
20.91274
 20
-3.3469311
 30
0.0
  0
VERTEX
  8
OUTLINE_R12
 10
13.198498
 20
-1.3280801
 30
0.0
  0
VERTEX
  8
OUTLINE_R12
 10
21.172605
 20
-1.2617647
 30
0.0
  0
VERTEX
  8
OUTLINE_R12
 10
23.819372
 20
-1.4265045
 30
0.0
  0
VERTEX
  8
OUTLINE_R12
 10
23.832417
 20
-1.2169101
 30
0.0
  0
VERTEX
  8
OUTLINE_R12
 10
21.185651
 20
-1.0521703
 30
0.0
  0
VERTEX
  8
OUTLINE_R12
 10
13.281497
 20
4.6002934e-16
 30
0.0
  0
SEQEND
  0
ENDSEC
  0
EOF
